<?xml version="1.0" encoding="UTF-8"?>
<svg width="32px" height="20px" viewBox="0 0 32 20" version="1.1" xmlns="http://www.w3.org/2000/svg" xmlns:xlink="http://www.w3.org/1999/xlink">
    <!-- Generator: Sketch 59.1 (86144) - https://sketch.com -->
    <title>Fill 1</title>
    <desc>Created with Sketch.</desc>
    <g id="Page-1" stroke="none" stroke-width="1" fill="none" fill-rule="evenodd">
        <g id="iPhone-8" transform="translate(-264.000000, -2952.000000)" fill="#000000">
            <g id="Group-3" transform="translate(264.000000, 2952.000000)">
                <path d="M14.6808431,2.07866667 C15.2848503,2.90866667 15.5875206,3.89933333 15.5875206,5.056 C15.5875206,6.246 15.2848503,7.20533333 14.6735096,7.92933333 C14.3308389,8.334 13.8288328,8.70533333 13.1648248,9.03933333 C14.172837,9.40333333 14.9328461,9.97666667 15.4501856,10.7613333 C15.9621918,11.5453333 16.2201949,12.4993333 16.2201949,13.62 C16.2201949,14.7766667 15.926858,15.8146667 15.3375176,16.7313333 C14.9648465,17.3386667 14.4988409,17.85 13.9375008,18.266 C13.3074932,18.7433333 12.564151,19.068 11.7048073,19.246 C10.844797,19.4226667 9.91545247,19.508 8.91077373,19.508 L0,19.508 L0,0 L9.55611482,0 C11.9681438,0.0353333333 13.6741643,0.727333333 14.6808431,2.07866667 L14.6808431,2.07866667 Z M3.94138069,3.38733333 L3.94138069,7.69133333 L8.75010514,7.69133333 C9.6067821,7.69133333 10.3047905,7.53 10.8427969,7.20733333 C11.3768034,6.884 11.6461399,6.31266667 11.6461399,5.496 C11.6461399,4.58466667 11.2921357,3.98466667 10.5847938,3.69133333 C9.97145315,3.48933333 9.19277712,3.38733333 8.24609908,3.38733333 L3.94138069,3.38733333 Z M3.94138069,10.92 L3.94138069,16.122 L8.74277172,16.122 C9.60078202,16.122 10.2707901,16.0073333 10.7467958,15.7793333 C11.6141395,15.352 12.0468114,14.5426667 12.0468114,13.3433333 C12.0468114,12.3266667 11.6294731,11.6306667 10.7881296,11.25 C10.318124,11.038 9.65744937,10.9266667 8.81077253,10.92 L3.94138069,10.92 Z M28.1750052,5.37533333 C29.1963508,5.82466667 30.0376943,6.53733333 30.6997022,7.51 C31.3043761,8.36733333 31.6917141,9.362 31.8683829,10.4926667 C31.9723842,11.1533333 32.0130513,12.1113333 31.9963845,13.3566667 L21.3415898,13.3566667 C21.4055905,14.8026667 21.9095966,15.818 22.8729415,16.3986667 C23.4562818,16.7606667 24.1582903,16.9426667 24.9823002,16.9426667 C25.8496439,16.9426667 26.5583191,16.722 27.1029923,16.282 C27.4016626,16.0426667 27.6656658,15.712 27.8903351,15.2886667 L31.7950487,15.2886667 C31.6917141,16.1433333 31.2177084,17.0133333 30.378365,17.8973333 C29.0690159,19.298 27.2343272,20 24.8769656,20 C22.9296088,20 21.2115882,19.4093333 19.7269037,18.2253333 C18.2348858,17.0426667 17.4942102,15.1166667 17.4942102,12.4513333 C17.4942102,9.95066667 18.1655516,8.03333333 19.5069011,6.69866667 C20.8522506,5.368 22.5922715,4.698 24.7356305,4.698 C26.0096459,4.698 27.1556596,4.92466667 28.1750052,5.37533333 L28.1750052,5.37533333 Z M22.4549365,8.63466667 C21.9155967,9.184 21.5749259,9.928 21.4355909,10.868 L28.0270034,10.868 C27.9570026,9.86533333 27.6143318,9.108 27.0083245,8.58666667 C26.3949838,8.06866667 25.6403081,7.81066667 24.7376306,7.81066667 C23.7589521,7.81066667 22.9956096,8.08533333 22.4549365,8.63466667 L22.4549365,8.63466667 Z M20.447579,3.33733333 L28.9216808,3.33733333 L28.9216808,0.909333333 L20.447579,0.909333333 L20.447579,3.33733333 Z" id="Fill-1"></path>
            </g>
        </g>
    </g>
</svg>