<?xml version="1.0" encoding="UTF-8"?>
<svg width="21px" height="20px" viewBox="0 0 21 20" version="1.1" xmlns="http://www.w3.org/2000/svg" xmlns:xlink="http://www.w3.org/1999/xlink">
    <!-- Generator: Sketch 59.1 (86144) - https://sketch.com -->
    <title>Github</title>
    <desc>Created with Sketch.</desc>
    <g id="Page-1" stroke="none" stroke-width="1" fill="none" fill-rule="evenodd">
        <g id="iPhone-8" transform="translate(-79.000000, -2952.000000)" fill="#000000" fill-rule="nonzero">
            <g id="Github-black" transform="translate(79.000000, 2952.000000)">
                <path d="M10.4993438,0 C4.701375,0 0,4.59025192 0,10.2538911 C0,14.7832643 3.00825,18.6263107 7.18134375,19.982303 C7.70634375,20.0765047 7.89796875,19.7599358 7.89796875,19.4882247 C7.89796875,19.2447098 7.88878125,18.6000366 7.88353125,17.7445311 C4.9625625,18.3642119 4.34634375,16.3699549 4.34634375,16.3699549 C3.86925,15.1857043 3.18084375,14.870417 3.18084375,14.870417 C2.2273125,14.2340745 3.25303125,14.2468911 3.25303125,14.2468911 C4.3063125,14.3193047 4.86084375,15.3036166 4.86084375,15.3036166 C5.79796875,16.8704417 7.3185,16.418017 7.917,16.1552775 C8.01215625,15.4926613 8.28384375,15.0408775 8.58375,14.784546 C6.25209375,14.5256515 3.801,13.6464353 3.801,9.71751788 C3.801,8.59799107 4.20984375,7.68288852 4.88184375,6.96580171 C4.7735625,6.70626639 4.41328125,5.66428001 4.98421875,4.25253532 C4.98421875,4.25253532 5.86621875,3.97697958 7.87171875,5.30349362 C8.70975,5.07599958 9.6075,4.9625732 10.5006562,4.95808724 C11.3925,4.9625732 12.2909062,5.07599958 13.1295937,5.30349362 C15.1337812,3.97697958 16.0138125,4.25253532 16.0138125,4.25253532 C16.5867188,5.66428001 16.2264375,6.70626639 16.1181562,6.96580171 C16.7914687,7.68288852 17.1976875,8.59799107 17.1976875,9.71751788 C17.1976875,13.6560477 14.7426562,14.5230881 12.4037812,14.7768562 C12.7804687,15.0934251 13.1164688,15.7188736 13.1164688,16.6756298 C13.1164688,18.0463613 13.1033438,19.1517898 13.1033438,19.4882247 C13.1033438,19.7624992 13.2923438,20.0816315 13.8252188,19.9810213 C17.994375,18.6224656 21,14.7819826 21,10.2538911 C21,4.59025192 16.298625,0 10.4993438,0" id="Github"></path>
            </g>
        </g>
    </g>
</svg>