<svg id="Layer_1" data-name="Layer 1" xmlns="http://www.w3.org/2000/svg" viewBox="0 0 106.89 67.39"><defs><style>.cls-1{fill:none;stroke:#000;stroke-linecap:round;stroke-miterlimit:10;stroke-width:5.42px;}</style></defs><title>Robbe_logo_small</title><path id="hair" class="cls-1" d="M45.33,23.76C45.31,11.15,67.87.53,77.45,3.24,82.88,4.78,83.9,14.15,71.3,18" transform="translate(-0.11 -0.1)"/><path id="r" d="M8.65,40.74H5.9v8.32H.11V23.75H10.24a8.65,8.65,0,0,1,8.67,8.68,8.34,8.34,0,0,1-4.66,7.34l5.39,9.29H13.42ZM5.9,35.68h4.34a3.06,3.06,0,0,0,2.89-3.25,3.06,3.06,0,0,0-2.89-3.26H5.9Z" transform="translate(-0.11 -0.1)"/><path id="o" d="M20.36,40a9.58,9.58,0,1,1,9.58,9.54A9.48,9.48,0,0,1,20.36,40ZM34.1,40a4.16,4.16,0,1,0-8.32,0,4.16,4.16,0,1,0,8.32,0Z" transform="translate(-0.11 -0.1)"/><path id="b" d="M62.05,40c0,5.39-3.91,9.54-8.65,9.54A6.78,6.78,0,0,1,48,47.36v1.7H42.59V23.75H48v8.93a6.79,6.79,0,0,1,5.38-2.21C58.14,30.47,62.05,34.63,62.05,40Zm-5.43,0A4.3,4.3,0,1,0,48,40a4.3,4.3,0,1,0,8.6,0Z" transform="translate(-0.11 -0.1)"/><path id="b-2" data-name="b" d="M84.57,40c0,5.39-3.91,9.54-8.64,9.54a6.81,6.81,0,0,1-5.39-2.2v1.7H65.12V23.75h5.42v8.93a6.81,6.81,0,0,1,5.39-2.21C80.66,30.47,84.57,34.63,84.57,40Zm-5.42,0a4.31,4.31,0,1,0-8.61,0,4.31,4.31,0,1,0,8.61,0Z" transform="translate(-0.11 -0.1)"/><path id="e" d="M99.75,43.91a4.78,4.78,0,0,0,2.25-3l5,.05a9.23,9.23,0,0,1-4.89,7.26c-5.39,3-10.91,1.15-13.56-3.54a9.28,9.28,0,0,1,3.69-13c4.6-2.6,10-1,12.69,3.8a10.55,10.55,0,0,1,.87,2L94.62,43.7A4.27,4.27,0,0,0,99.75,43.91Zm-.44-7.5a4.07,4.07,0,0,0-6.77,3.82Z" transform="translate(-0.11 -0.1)"/><path id="nose" class="cls-1" d="M67.83,49.06c0,3.65,5,6,5,10.17,0,4.83-4.54,6.35-8.65,5.17" transform="translate(-0.11 -0.1)"/></svg>