<?xml version="1.0" encoding="UTF-8"?>
<svg width="20px" height="20px" viewBox="0 0 20 20" version="1.1" xmlns="http://www.w3.org/2000/svg" xmlns:xlink="http://www.w3.org/1999/xlink">
    <!-- Generator: Sketch 59.1 (86144) - https://sketch.com -->
    <title>profile [#1341]</title>
    <desc>Created with Sketch.</desc>
    <g id="Icons" stroke="none" stroke-width="1" fill="none" fill-rule="evenodd">
        <g id="Users" transform="translate(-140.000000, -100.000000)" fill="#000000">
            <g id="icons" transform="translate(20.000000, 20.000000)">
                <path d="M129.999688,90.049 C127.783184,90.049 125.980642,88.255 125.980642,86.049 C125.980642,83.843 127.783184,82.049 129.999688,82.049 C132.216191,82.049 134.018733,83.843 134.018733,86.049 C134.018733,88.255 132.216191,90.049 129.999688,90.049 M133.775581,90.722 C135.370137,89.445 136.299541,87.38 135.957922,85.119 C135.561042,82.496 133.368653,80.397 130.722111,80.091 C127.069804,79.668 123.97112,82.498 123.97112,86.049 C123.97112,87.939 124.851291,89.623 126.223795,90.722 C122.851816,91.983 120.39015,94.944 120.004322,98.94 C119.948055,99.531 120.41125,100.049 121.008079,100.049 C121.519502,100.049 121.955568,99.665 122.000783,99.158 C122.403692,94.695 125.836962,92.049 129.999688,92.049 C134.162414,92.049 137.595683,94.695 137.998593,99.158 C138.043807,99.665 138.479873,100.049 138.991297,100.049 C139.588125,100.049 140.05132,99.531 139.995054,98.94 C139.609225,94.944 137.14756,91.983 133.775581,90.722" id="profile-[#1341]"></path>
            </g>
        </g>
    </g>
</svg>